<svg xmlns="http://www.w3.org/2000/svg" viewBox="0 0 512 512" width="512" height="512">
  <rect width="512" height="512" fill="#0d0221"/>
  <g transform="scale(16) translate(2,2)">
    <!-- pixel M left cyan -->
    <rect x="2" y="2" width="2" height="12" fill="#00f5d4"/>
    <rect x="4" y="4" width="1" height="1" fill="#00f5d4"/>
    <rect x="5" y="5" width="1" height="1" fill="#00f5d4"/>
    <rect x="6" y="6" width="1" height="1" fill="#00f5d4"/>
    <rect x="7" y="5" width="1" height="1" fill="#00f5d4"/>
    <rect x="8" y="4" width="1" height="1" fill="#00f5d4"/>
    <rect x="9" y="2" width="2" height="12" fill="#00f5d4"/>
    <!-- pixel M right magenta -->
    <rect x="12" y="2" width="2" height="12" fill="#ff006e"/>
    <rect x="14" y="4" width="1" height="1" fill="#ff006e"/>
    <rect x="15" y="5" width="1" height="1" fill="#ff006e"/>
    <rect x="16" y="6" width="1" height="1" fill="#ff006e"/>
    <rect x="17" y="5" width="1" height="1" fill="#ff006e"/>
    <rect x="18" y="4" width="1" height="1" fill="#ff006e"/>
    <rect x="19" y="2" width="2" height="12" fill="#ff006e"/>
  </g>
</svg>
